<mxfile host="65bd71144e">
    <diagram id="nuq9U3arvXfgI5p2zAki" name="初步類別圖">
        <mxGraphModel dx="960" dy="502" grid="1" gridSize="10" guides="1" tooltips="1" connect="1" arrows="0" fold="1" page="1" pageScale="1" pageWidth="827" pageHeight="1169" math="0" shadow="0">
            <root>
                <mxCell id="0"/>
                <mxCell id="1" parent="0"/>
                <mxCell id="NEcEsWFajrbZBPoSEIqB-147" style="edgeStyle=none;html=1;exitX=0.5;exitY=1;exitDx=0;exitDy=0;entryX=0.5;entryY=0;entryDx=0;entryDy=0;" edge="1" parent="1" source="33" target="ymKHsQlVTlzVroeCP11B-75">
                    <mxGeometry relative="1" as="geometry"/>
                </mxCell>
                <mxCell id="NEcEsWFajrbZBPoSEIqB-149" style="edgeStyle=none;html=1;exitX=1;exitY=0.5;exitDx=0;exitDy=0;entryX=-0.011;entryY=0.324;entryDx=0;entryDy=0;entryPerimeter=0;" edge="1" parent="1" source="33" target="104">
                    <mxGeometry relative="1" as="geometry"/>
                </mxCell>
                <mxCell id="33" value="&lt;font style=&quot;font-size: 20px;&quot;&gt;customer&lt;/font&gt;" style="swimlane;whiteSpace=wrap;html=1;startSize=30;" parent="1" vertex="1">
                    <mxGeometry x="20" y="50" width="240" height="200" as="geometry"/>
                </mxCell>
                <mxCell id="34" value="&lt;font style=&quot;&quot;&gt;&lt;span style=&quot;font-size: 24px;&quot;&gt;- customer number&lt;br&gt;&lt;/span&gt;&lt;span style=&quot;font-size: 24px;&quot;&gt;- name&lt;br&gt;&lt;/span&gt;&lt;span style=&quot;font-size: 24px;&quot;&gt;- contact person&lt;/span&gt;&lt;br&gt;&lt;span style=&quot;font-size: 24px;&quot;&gt;-&amp;nbsp;Telephone&lt;/span&gt;&lt;br&gt;&lt;span style=&quot;font-size: 24px;&quot;&gt;- address&lt;/span&gt;&lt;br&gt;&lt;/font&gt;" style="text;html=1;align=left;verticalAlign=middle;resizable=0;points=[];autosize=1;strokeColor=none;fillColor=none;" parent="33" vertex="1">
                    <mxGeometry x="10" y="32.5" width="220" height="160" as="geometry"/>
                </mxCell>
                <mxCell id="70" value="1..*" style="text;strokeColor=none;fillColor=none;html=1;fontSize=24;fontStyle=1;verticalAlign=middle;align=center;" parent="1" vertex="1">
                    <mxGeometry x="330" y="170" width="30" as="geometry"/>
                </mxCell>
                <mxCell id="72" value="1" style="text;strokeColor=none;fillColor=none;html=1;fontSize=24;fontStyle=1;verticalAlign=middle;align=center;" parent="1" vertex="1">
                    <mxGeometry x="250" y="130" width="60" height="20" as="geometry"/>
                </mxCell>
                <mxCell id="NEcEsWFajrbZBPoSEIqB-148" style="edgeStyle=none;html=1;exitX=0.5;exitY=1;exitDx=0;exitDy=0;" edge="1" parent="1" source="ymKHsQlVTlzVroeCP11B-75">
                    <mxGeometry relative="1" as="geometry">
                        <mxPoint x="140" y="580" as="targetPoint"/>
                    </mxGeometry>
                </mxCell>
                <mxCell id="ymKHsQlVTlzVroeCP11B-75" value="&lt;font style=&quot;font-size: 20px;&quot;&gt;Order&lt;/font&gt;" style="swimlane;whiteSpace=wrap;html=1;startSize=30;" parent="1" vertex="1">
                    <mxGeometry x="30" y="320" width="220" height="150" as="geometry"/>
                </mxCell>
                <mxCell id="ymKHsQlVTlzVroeCP11B-76" value="&lt;font style=&quot;&quot;&gt;&lt;span style=&quot;font-size: 22px;&quot;&gt;- video id&lt;/span&gt;&lt;/font&gt;&lt;font style=&quot;&quot;&gt;&lt;br&gt;&lt;span style=&quot;font-size: 22px;&quot;&gt;- plave of shipment&lt;br&gt;&lt;/span&gt;&lt;span style=&quot;font-size: 22px;&quot;&gt;- shioment date&lt;/span&gt;&lt;br&gt;&lt;/font&gt;" style="text;html=1;align=left;verticalAlign=middle;resizable=0;points=[];autosize=1;strokeColor=none;fillColor=none;" parent="ymKHsQlVTlzVroeCP11B-75" vertex="1">
                    <mxGeometry x="10" y="55" width="210" height="90" as="geometry"/>
                </mxCell>
                <mxCell id="75" value="&lt;span style=&quot;font-size: 20px;&quot;&gt;Video&lt;/span&gt;" style="swimlane;whiteSpace=wrap;html=1;startSize=30;" parent="1" vertex="1">
                    <mxGeometry x="594" y="300" width="233" height="130" as="geometry"/>
                </mxCell>
                <mxCell id="76" value="&lt;font style=&quot;font-size: 22px;&quot;&gt; - video id&lt;br&gt;&lt;/font&gt;" style="text;html=1;align=left;verticalAlign=middle;resizable=0;points=[];autosize=1;strokeColor=none;fillColor=none;" parent="75" vertex="1">
                    <mxGeometry x="1.5" y="30" width="110" height="40" as="geometry"/>
                </mxCell>
                <mxCell id="112" value="&lt;font style=&quot;font-size: 22px;&quot;&gt;&lt;span style=&quot;font-size: 24px;&quot;&gt;-video name&lt;/span&gt;&lt;br&gt;&lt;/font&gt;" style="text;html=1;align=left;verticalAlign=middle;resizable=0;points=[];autosize=1;strokeColor=none;fillColor=none;" parent="75" vertex="1">
                    <mxGeometry x="1.5" y="60" width="160" height="40" as="geometry"/>
                </mxCell>
                <mxCell id="NEcEsWFajrbZBPoSEIqB-137" value="&lt;font style=&quot;font-size: 22px;&quot;&gt;&lt;span style=&quot;font-size: 24px;&quot;&gt;-author&lt;/span&gt;&lt;br&gt;&lt;/font&gt;" style="text;html=1;align=left;verticalAlign=middle;resizable=0;points=[];autosize=1;strokeColor=none;fillColor=none;" vertex="1" parent="75">
                    <mxGeometry x="1.5" y="90" width="100" height="40" as="geometry"/>
                </mxCell>
                <mxCell id="NEcEsWFajrbZBPoSEIqB-146" style="edgeStyle=none;html=1;exitX=1;exitY=0.5;exitDx=0;exitDy=0;entryX=0.5;entryY=0;entryDx=0;entryDy=0;" edge="1" parent="1" source="77" target="75">
                    <mxGeometry relative="1" as="geometry">
                        <mxPoint x="729.9999999999998" y="130" as="targetPoint"/>
                        <Array as="points">
                            <mxPoint x="711" y="140"/>
                        </Array>
                    </mxGeometry>
                </mxCell>
                <mxCell id="77" value="&lt;span style=&quot;font-size: 20px;&quot;&gt;Video rental system&lt;/span&gt;" style="swimlane;whiteSpace=wrap;html=1;startSize=30;" parent="1" vertex="1">
                    <mxGeometry x="360" y="57.5" width="240" height="165" as="geometry"/>
                </mxCell>
                <mxCell id="78" value="&lt;font style=&quot;font-size: 22px;&quot;&gt;&lt;span style=&quot;font-size: 24px;&quot;&gt;-check the inventory&lt;/span&gt;&lt;br&gt;&lt;/font&gt;" style="text;html=1;align=left;verticalAlign=middle;resizable=0;points=[];autosize=1;strokeColor=none;fillColor=none;" parent="77" vertex="1">
                    <mxGeometry y="40" width="240" height="40" as="geometry"/>
                </mxCell>
                <mxCell id="104" value="&lt;font style=&quot;font-size: 22px;&quot;&gt;&lt;span style=&quot;font-size: 24px;&quot;&gt;-add goods&lt;br&gt;&lt;/span&gt;&lt;br&gt;&lt;/font&gt;" style="text;html=1;align=left;verticalAlign=middle;resizable=0;points=[];autosize=1;strokeColor=none;fillColor=none;" parent="77" vertex="1">
                    <mxGeometry y="70" width="140" height="70" as="geometry"/>
                </mxCell>
                <mxCell id="NEcEsWFajrbZBPoSEIqB-136" value="&lt;font style=&quot;font-size: 22px;&quot;&gt;&lt;span style=&quot;font-size: 24px;&quot;&gt;-delete the product&lt;/span&gt;&lt;br&gt;&lt;/font&gt;" style="text;html=1;align=left;verticalAlign=middle;resizable=0;points=[];autosize=1;strokeColor=none;fillColor=none;" vertex="1" parent="77">
                    <mxGeometry y="110" width="220" height="40" as="geometry"/>
                </mxCell>
                <mxCell id="23" value="&lt;span style=&quot;font-size: 20px;&quot;&gt;Order details&lt;/span&gt;" style="swimlane;whiteSpace=wrap;html=1;startSize=30;" parent="1" vertex="1">
                    <mxGeometry x="30" y="580" width="230" height="160" as="geometry"/>
                </mxCell>
                <mxCell id="24" value="&lt;font style=&quot;&quot;&gt;&lt;span style=&quot;font-size: 22px;&quot;&gt;- video id&lt;/span&gt;&lt;/font&gt;&lt;font style=&quot;&quot;&gt;&lt;br&gt;&lt;span style=&quot;font-size: 22px;&quot;&gt;-&amp;nbsp;quantity&lt;/span&gt;&lt;br&gt;&lt;/font&gt;" style="text;html=1;align=left;verticalAlign=middle;resizable=0;points=[];autosize=1;strokeColor=none;fillColor=none;" parent="23" vertex="1">
                    <mxGeometry x="10" y="40" width="110" height="70" as="geometry"/>
                </mxCell>
                <mxCell id="109" value="1" style="text;strokeColor=none;fillColor=none;html=1;fontSize=24;fontStyle=1;verticalAlign=middle;align=center;" parent="1" vertex="1">
                    <mxGeometry x="120" y="250" width="100" height="40" as="geometry"/>
                </mxCell>
                <mxCell id="113" value="1..*" style="text;strokeColor=none;fillColor=none;html=1;fontSize=24;fontStyle=1;verticalAlign=middle;align=center;" parent="1" vertex="1">
                    <mxGeometry x="100" y="300" width="30" as="geometry"/>
                </mxCell>
                <mxCell id="114" value="1..*" style="text;strokeColor=none;fillColor=none;html=1;fontSize=24;fontStyle=1;verticalAlign=middle;align=center;" parent="1" vertex="1">
                    <mxGeometry x="620" y="90" width="30" height="40" as="geometry"/>
                </mxCell>
                <mxCell id="115" value="1..*" style="text;strokeColor=none;fillColor=none;html=1;fontSize=24;fontStyle=1;verticalAlign=middle;align=center;" parent="1" vertex="1">
                    <mxGeometry x="670" y="205" width="30" height="130" as="geometry"/>
                </mxCell>
                <mxCell id="119" value="1" style="text;strokeColor=none;fillColor=none;html=1;fontSize=24;fontStyle=1;verticalAlign=middle;align=center;" parent="1" vertex="1">
                    <mxGeometry x="60" y="540" width="100" height="40" as="geometry"/>
                </mxCell>
                <mxCell id="120" value="1" style="text;strokeColor=none;fillColor=none;html=1;fontSize=24;fontStyle=1;verticalAlign=middle;align=center;" parent="1" vertex="1">
                    <mxGeometry x="60" y="470" width="100" height="40" as="geometry"/>
                </mxCell>
            </root>
        </mxGraphModel>
    </diagram>
    <diagram id="AkxxwqE6z16yv0lvU_IR" name="第2頁">
        <mxGraphModel dx="2470" dy="427" grid="1" gridSize="10" guides="1" tooltips="1" connect="1" arrows="1" fold="1" page="1" pageScale="1" pageWidth="827" pageHeight="1169" math="0" shadow="0">
            <root>
                <mxCell id="0"/>
                <mxCell id="1" parent="0"/>
                <mxCell id="5SD0GFOKpmo3XVJtTF31-1" value="&lt;font style=&quot;font-size: 20px;&quot;&gt;租影片系統&lt;/font&gt;" style="swimlane;whiteSpace=wrap;html=1;startSize=40;" parent="1" vertex="1">
                    <mxGeometry x="-1460" y="280" width="400" height="630" as="geometry"/>
                </mxCell>
                <mxCell id="5SD0GFOKpmo3XVJtTF31-2" value="&lt;font style=&quot;font-size: 25px;&quot;&gt;租借訂單&lt;/font&gt;" style="ellipse;whiteSpace=wrap;html=1;" parent="5SD0GFOKpmo3XVJtTF31-1" vertex="1">
                    <mxGeometry x="40" y="60" width="170" height="80" as="geometry"/>
                </mxCell>
                <mxCell id="5SD0GFOKpmo3XVJtTF31-3" value="影片庫存" style="ellipse;whiteSpace=wrap;html=1;fontSize=25;" parent="5SD0GFOKpmo3XVJtTF31-1" vertex="1">
                    <mxGeometry x="30" y="250" width="160" height="80" as="geometry"/>
                </mxCell>
                <mxCell id="5SD0GFOKpmo3XVJtTF31-4" value="出貨作業" style="ellipse;whiteSpace=wrap;html=1;fontSize=25;" parent="5SD0GFOKpmo3XVJtTF31-1" vertex="1">
                    <mxGeometry x="210" y="300" width="150" height="80" as="geometry"/>
                </mxCell>
                <mxCell id="5SD0GFOKpmo3XVJtTF31-5" value="回收作業" style="ellipse;whiteSpace=wrap;html=1;fontSize=25;" parent="5SD0GFOKpmo3XVJtTF31-1" vertex="1">
                    <mxGeometry x="210" y="150" width="150" height="80" as="geometry"/>
                </mxCell>
                <mxCell id="5SD0GFOKpmo3XVJtTF31-6" style="edgeStyle=none;html=1;exitX=1;exitY=0.3333333333333333;exitDx=0;exitDy=0;exitPerimeter=0;entryX=0;entryY=0.5;entryDx=0;entryDy=0;fontSize=25;endArrow=none;endFill=0;" parent="1" source="5SD0GFOKpmo3XVJtTF31-8" target="5SD0GFOKpmo3XVJtTF31-2" edge="1">
                    <mxGeometry relative="1" as="geometry"/>
                </mxCell>
                <mxCell id="5SD0GFOKpmo3XVJtTF31-7" style="edgeStyle=none;html=1;exitX=1;exitY=0.3333333333333333;exitDx=0;exitDy=0;exitPerimeter=0;entryX=0;entryY=0.5;entryDx=0;entryDy=0;fontSize=25;endArrow=none;endFill=0;" parent="1" source="5SD0GFOKpmo3XVJtTF31-8" target="5SD0GFOKpmo3XVJtTF31-5" edge="1">
                    <mxGeometry relative="1" as="geometry"/>
                </mxCell>
                <mxCell id="5SD0GFOKpmo3XVJtTF31-8" value="現場顧客" style="shape=umlActor;verticalLabelPosition=bottom;verticalAlign=top;html=1;outlineConnect=0;fontSize=20;" parent="1" vertex="1">
                    <mxGeometry x="-1570" y="340" width="60" height="100" as="geometry"/>
                </mxCell>
                <mxCell id="5SD0GFOKpmo3XVJtTF31-9" style="edgeStyle=none;html=1;exitX=1;exitY=0.3333333333333333;exitDx=0;exitDy=0;exitPerimeter=0;entryX=0;entryY=0.5;entryDx=0;entryDy=0;fontSize=25;endArrow=none;endFill=0;" parent="1" source="5SD0GFOKpmo3XVJtTF31-11" target="5SD0GFOKpmo3XVJtTF31-2" edge="1">
                    <mxGeometry relative="1" as="geometry"/>
                </mxCell>
                <mxCell id="5SD0GFOKpmo3XVJtTF31-10" style="edgeStyle=none;html=1;exitX=1;exitY=0.3333333333333333;exitDx=0;exitDy=0;exitPerimeter=0;entryX=0;entryY=0.5;entryDx=0;entryDy=0;fontSize=25;endArrow=none;endFill=0;" parent="1" source="5SD0GFOKpmo3XVJtTF31-11" target="5SD0GFOKpmo3XVJtTF31-5" edge="1">
                    <mxGeometry relative="1" as="geometry"/>
                </mxCell>
                <mxCell id="5SD0GFOKpmo3XVJtTF31-11" value="線上顧客" style="shape=umlActor;verticalLabelPosition=bottom;verticalAlign=top;html=1;outlineConnect=0;fontSize=20;" parent="1" vertex="1">
                    <mxGeometry x="-1570" y="490" width="60" height="100" as="geometry"/>
                </mxCell>
                <mxCell id="5SD0GFOKpmo3XVJtTF31-12" style="edgeStyle=none;html=1;exitX=1;exitY=0.3333333333333333;exitDx=0;exitDy=0;exitPerimeter=0;entryX=0;entryY=0.5;entryDx=0;entryDy=0;fontSize=25;endArrow=none;endFill=0;" parent="1" source="5SD0GFOKpmo3XVJtTF31-14" target="5SD0GFOKpmo3XVJtTF31-2" edge="1">
                    <mxGeometry relative="1" as="geometry"/>
                </mxCell>
                <mxCell id="5SD0GFOKpmo3XVJtTF31-13" style="edgeStyle=none;html=1;exitX=1;exitY=0.3333333333333333;exitDx=0;exitDy=0;exitPerimeter=0;entryX=0;entryY=0.5;entryDx=0;entryDy=0;fontSize=25;endArrow=none;endFill=0;" parent="1" source="5SD0GFOKpmo3XVJtTF31-14" target="5SD0GFOKpmo3XVJtTF31-3" edge="1">
                    <mxGeometry relative="1" as="geometry"/>
                </mxCell>
                <mxCell id="5SD0GFOKpmo3XVJtTF31-14" value="店員" style="shape=umlActor;verticalLabelPosition=bottom;verticalAlign=top;html=1;outlineConnect=0;fontSize=20;" parent="1" vertex="1">
                    <mxGeometry x="-1580" y="630" width="60" height="100" as="geometry"/>
                </mxCell>
                <mxCell id="5SD0GFOKpmo3XVJtTF31-15" style="edgeStyle=none;html=1;entryX=0;entryY=0.5;entryDx=0;entryDy=0;fontSize=25;endArrow=none;endFill=0;exitX=1;exitY=0.3333333333333333;exitDx=0;exitDy=0;exitPerimeter=0;" parent="1" source="5SD0GFOKpmo3XVJtTF31-18" target="5SD0GFOKpmo3XVJtTF31-2" edge="1">
                    <mxGeometry relative="1" as="geometry">
                        <mxPoint x="-1520" y="810" as="sourcePoint"/>
                    </mxGeometry>
                </mxCell>
                <mxCell id="5SD0GFOKpmo3XVJtTF31-16" style="edgeStyle=none;html=1;exitX=1;exitY=0.3333333333333333;exitDx=0;exitDy=0;exitPerimeter=0;entryX=0;entryY=0.5;entryDx=0;entryDy=0;fontSize=25;endArrow=none;endFill=0;" parent="1" source="5SD0GFOKpmo3XVJtTF31-18" target="5SD0GFOKpmo3XVJtTF31-3" edge="1">
                    <mxGeometry relative="1" as="geometry"/>
                </mxCell>
                <mxCell id="5SD0GFOKpmo3XVJtTF31-17" style="edgeStyle=none;html=1;exitX=1;exitY=0.3333333333333333;exitDx=0;exitDy=0;exitPerimeter=0;entryX=0.5;entryY=1;entryDx=0;entryDy=0;fontSize=25;endArrow=none;endFill=0;" parent="1" source="5SD0GFOKpmo3XVJtTF31-18" target="5SD0GFOKpmo3XVJtTF31-5" edge="1">
                    <mxGeometry relative="1" as="geometry"/>
                </mxCell>
                <mxCell id="5SD0GFOKpmo3XVJtTF31-18" value="庫存管理員" style="shape=umlActor;verticalLabelPosition=bottom;verticalAlign=top;html=1;outlineConnect=0;fontSize=20;" parent="1" vertex="1">
                    <mxGeometry x="-1580" y="785" width="60" height="100" as="geometry"/>
                </mxCell>
                <mxCell id="5SD0GFOKpmo3XVJtTF31-19" style="edgeStyle=none;html=1;exitX=0;exitY=0.3333333333333333;exitDx=0;exitDy=0;exitPerimeter=0;entryX=1;entryY=0.5;entryDx=0;entryDy=0;fontSize=25;endArrow=none;endFill=0;" parent="1" source="5SD0GFOKpmo3XVJtTF31-22" target="5SD0GFOKpmo3XVJtTF31-3" edge="1">
                    <mxGeometry relative="1" as="geometry"/>
                </mxCell>
                <mxCell id="5SD0GFOKpmo3XVJtTF31-20" style="edgeStyle=none;html=1;exitX=0;exitY=0.3333333333333333;exitDx=0;exitDy=0;exitPerimeter=0;entryX=1;entryY=0.5;entryDx=0;entryDy=0;fontSize=25;endArrow=none;endFill=0;" parent="1" source="5SD0GFOKpmo3XVJtTF31-22" target="5SD0GFOKpmo3XVJtTF31-4" edge="1">
                    <mxGeometry relative="1" as="geometry"/>
                </mxCell>
                <mxCell id="5SD0GFOKpmo3XVJtTF31-21" style="edgeStyle=none;html=1;exitX=0;exitY=0.3333333333333333;exitDx=0;exitDy=0;exitPerimeter=0;entryX=1;entryY=0.5;entryDx=0;entryDy=0;fontSize=25;endArrow=none;endFill=0;" parent="1" source="5SD0GFOKpmo3XVJtTF31-22" target="5SD0GFOKpmo3XVJtTF31-5" edge="1">
                    <mxGeometry relative="1" as="geometry"/>
                </mxCell>
                <mxCell id="5SD0GFOKpmo3XVJtTF31-22" value="物流人員" style="shape=umlActor;verticalLabelPosition=bottom;verticalAlign=top;html=1;outlineConnect=0;fontSize=20;" parent="1" vertex="1">
                    <mxGeometry x="-990" y="430" width="60" height="100" as="geometry"/>
                </mxCell>
            </root>
        </mxGraphModel>
    </diagram>
    <diagram id="uxeRygT8rkisD3RJ7s8g" name="系統循序圖">
        <mxGraphModel dx="816" dy="201" grid="1" gridSize="10" guides="1" tooltips="1" connect="1" arrows="1" fold="1" page="1" pageScale="1" pageWidth="1169" pageHeight="827" math="0" shadow="0">
            <root>
                <mxCell id="0"/>
                <mxCell id="1" parent="0"/>
                <mxCell id="-9plJKBU2vz6Er4yd_fF-1" value="" style="html=1;outlineConnect=0;whiteSpace=wrap;fillColor=#FFFFFF;verticalLabelPosition=bottom;verticalAlign=top;align=center;shape=mxgraph.archimate3.actor;" parent="1" vertex="1">
                    <mxGeometry x="90" y="80" width="40" height="60" as="geometry"/>
                </mxCell>
            </root>
        </mxGraphModel>
    </diagram>
</mxfile>